<svg xmlns="http://www.w3.org/2000/svg" width="1360" height="1744" viewBox="0 0 1360 1744"><rect width="100%" height="100%" fill="#e8f0f0"/>
<text x="36" y="54.0" font-family="DejaVu Sans, sans-serif" font-size="30" fill="#0a4a55" font-weight="700">FL01  Compra de produtos</text>
<text x="36" y="89.6" font-family="DejaVu Sans, sans-serif" font-size="17" fill="#427a7e" font-weight="400">Fluxo funcional por responsável • proposta v1 • não é BPMN executável</text>
<rect x="36" y="115" width="304" height="1574" rx="4" fill="#f2f7f7" stroke="#cde0e2"/>
<text x="52" y="153.0" font-family="DejaVu Sans, sans-serif" font-size="20" fill="#0a4a55" font-weight="700">Cliente</text>
<rect x="356" y="115" width="304" height="1574" rx="4" fill="#f2f7f7" stroke="#cde0e2"/>
<text x="372" y="153.0" font-family="DejaVu Sans, sans-serif" font-size="20" fill="#0a4a55" font-weight="700">Aplicação</text>
<rect x="676" y="115" width="304" height="1574" rx="4" fill="#f2f7f7" stroke="#cde0e2"/>
<text x="692" y="153.0" font-family="DejaVu Sans, sans-serif" font-size="20" fill="#0a4a55" font-weight="700">Integrações</text>
<rect x="996" y="115" width="304" height="1574" rx="4" fill="#f2f7f7" stroke="#cde0e2"/>
<text x="1012" y="153.0" font-family="DejaVu Sans, sans-serif" font-size="20" fill="#0a4a55" font-weight="700">Loja</text>
<polyline points="188.0,327 188.0,344.0 188.0,344.0 188.0,361" fill="none" stroke="#76a6aa" stroke-width="2"/>
<polygon points="188.0,361 183.20574461395796,352.22417438109625 192.79425538604204,352.22417438109625" fill="#76a6aa"/>
<polyline points="188.0,493 188.0,510.0 508.0,510.0 508.0,527" fill="none" stroke="#76a6aa" stroke-width="2"/>
<polygon points="508.0,527 503.20574461395796,518.2241743810963 512.794255386042,518.2241743810963" fill="#76a6aa"/>
<polyline points="508.0,659 508.0,676.0 828.0,676.0 828.0,693" fill="none" stroke="#76a6aa" stroke-width="2"/>
<polygon points="828.0,693 823.205744613958,684.2241743810963 832.794255386042,684.2241743810963" fill="#76a6aa"/>
<rect x="378" y="673" width="53.2" height="24" rx="2" fill="#e8f0f0" stroke="#e8f0f0"/>
<text x="382" y="685.6" font-family="DejaVu Sans, sans-serif" font-size="12" fill="#427a7e" font-weight="400">válido</text>
<polyline points="828.0,825 828.0,842.0 1148.0,842.0 1148.0,859" fill="none" stroke="#76a6aa" stroke-width="2"/>
<polygon points="1148.0,859 1143.205744613958,850.2241743810963 1152.794255386042,850.2241743810963" fill="#76a6aa"/>
<rect x="698" y="839" width="139.6" height="24" rx="2" fill="#e8f0f0" stroke="#e8f0f0"/>
<text x="702" y="851.6" font-family="DejaVu Sans, sans-serif" font-size="12" fill="#427a7e" font-weight="400">conferência manual</text>
<polyline points="828.0,825 828.0,839 674,839 674,1010 508.0,1010 508.0,1025" fill="none" stroke="#76a6aa" stroke-width="2"/>
<polygon points="508.0,1025 503.20574461395796,1016.2241743810963 512.794255386042,1016.2241743810963" fill="#76a6aa"/>
<rect x="378" y="839" width="132.4" height="24" rx="2" fill="#e8f0f0" stroke="#e8f0f0"/>
<text x="382" y="851.6" font-family="DejaVu Sans, sans-serif" font-size="12" fill="#427a7e" font-weight="400">reserva confiável</text>
<polyline points="1148.0,991 1148.0,1008.0 508.0,1008.0 508.0,1025" fill="none" stroke="#76a6aa" stroke-width="2"/>
<polygon points="508.0,1025 503.20574461395796,1016.2241743810963 512.794255386042,1016.2241743810963" fill="#76a6aa"/>
<rect x="378" y="1005" width="82.0" height="24" rx="2" fill="#e8f0f0" stroke="#e8f0f0"/>
<text x="382" y="1017.6" font-family="DejaVu Sans, sans-serif" font-size="12" fill="#427a7e" font-weight="400">disponível</text>
<polyline points="508.0,1157 508.0,1174.0 828.0,1174.0 828.0,1191" fill="none" stroke="#76a6aa" stroke-width="2"/>
<polygon points="828.0,1191 823.205744613958,1182.2241743810962 832.794255386042,1182.2241743810962" fill="#76a6aa"/>
<polyline points="828.0,1323 828.0,1340.0 1148.0,1340.0 1148.0,1357" fill="none" stroke="#76a6aa" stroke-width="2"/>
<polygon points="1148.0,1357 1143.205744613958,1348.2241743810962 1152.794255386042,1348.2241743810962" fill="#76a6aa"/>
<rect x="698" y="1337" width="132.4" height="24" rx="2" fill="#e8f0f0" stroke="#e8f0f0"/>
<text x="702" y="1349.6" font-family="DejaVu Sans, sans-serif" font-size="12" fill="#427a7e" font-weight="400">condição atendida</text>
<polyline points="1148.0,1489 1148.0,1506.0 188.0,1506.0 188.0,1523" fill="none" stroke="#76a6aa" stroke-width="2"/>
<polygon points="188.0,1523 183.20574461395796,1514.2241743810962 192.79425538604204,1514.2241743810962" fill="#76a6aa"/>
<rect x="50" y="195" width="276" height="132" rx="6" fill="#f2f7f7" stroke="#06858e"/>
<text x="64" y="220.8" font-family="DejaVu Sans, sans-serif" font-size="16" fill="#0a4a55" font-weight="700">P02 e P03: selecionar</text>
<text x="64" y="241.8" font-family="DejaVu Sans, sans-serif" font-size="16" fill="#0a4a55" font-weight="700">produto</text>
<text x="64" y="265.4" font-family="DejaVu Sans, sans-serif" font-size="13" fill="#427a7e" font-weight="400">Escolher variante e quantidade.</text>
<rect x="50" y="361" width="276" height="132" rx="6" fill="#f2f7f7" stroke="#06858e"/>
<text x="64" y="386.8" font-family="DejaVu Sans, sans-serif" font-size="16" fill="#0a4a55" font-weight="700">P05 e P06: revisar compra</text>
<text x="64" y="410.4" font-family="DejaVu Sans, sans-serif" font-size="13" fill="#427a7e" font-weight="400">Entrar, escolher recebimento e</text>
<text x="64" y="428.4" font-family="DejaVu Sans, sans-serif" font-size="13" fill="#427a7e" font-weight="400">pagamento.</text>
<rect x="370" y="527" width="276" height="132" rx="6" fill="#f2f7f7" stroke="#06858e"/>
<text x="384" y="552.8" font-family="DejaVu Sans, sans-serif" font-size="16" fill="#0a4a55" font-weight="700">Validar e registrar</text>
<text x="384" y="573.8" font-family="DejaVu Sans, sans-serif" font-size="16" fill="#0a4a55" font-weight="700">intenção</text>
<text x="384" y="597.4" font-family="DejaVu Sans, sans-serif" font-size="13" fill="#427a7e" font-weight="400">Resumo atual e pedido pendente,</text>
<text x="384" y="615.4" font-family="DejaVu Sans, sans-serif" font-size="13" fill="#427a7e" font-weight="400">sem cobrança.</text>
<rect x="690" y="693" width="276" height="132" rx="6" fill="#f2f7f7" stroke="#06858e"/>
<text x="704" y="718.8" font-family="DejaVu Sans, sans-serif" font-size="16" fill="#0a4a55" font-weight="700">Disponibilidade</text>
<text x="704" y="739.8" font-family="DejaVu Sans, sans-serif" font-size="16" fill="#0a4a55" font-weight="700">confirmável?</text>
<text x="704" y="763.4" font-family="DejaVu Sans, sans-serif" font-size="13" fill="#427a7e" font-weight="400">Reserva integrada ou conferência da</text>
<text x="704" y="781.4" font-family="DejaVu Sans, sans-serif" font-size="13" fill="#427a7e" font-weight="400">loja.</text>
<rect x="1010" y="859" width="276" height="132" rx="6" fill="#f2f7f7" stroke="#06858e"/>
<text x="1024" y="884.8" font-family="DejaVu Sans, sans-serif" font-size="16" fill="#0a4a55" font-weight="700">Conferir estoque quando</text>
<text x="1024" y="905.8" font-family="DejaVu Sans, sans-serif" font-size="16" fill="#0a4a55" font-weight="700">necessário</text>
<text x="1024" y="929.4" font-family="DejaVu Sans, sans-serif" font-size="13" fill="#427a7e" font-weight="400">Sem reserva automática, aguardar</text>
<text x="1024" y="947.4" font-family="DejaVu Sans, sans-serif" font-size="13" fill="#427a7e" font-weight="400">confirmação.</text>
<rect x="370" y="1025" width="276" height="132" rx="6" fill="#f2f7f7" stroke="#06858e"/>
<text x="384" y="1050.8" font-family="DejaVu Sans, sans-serif" font-size="16" fill="#0a4a55" font-weight="700">Confirmar disponibilidade</text>
<text x="384" y="1074.4" font-family="DejaVu Sans, sans-serif" font-size="13" fill="#427a7e" font-weight="400">Atualizar o mesmo pedido, sem</text>
<text x="384" y="1092.4" font-family="DejaVu Sans, sans-serif" font-size="13" fill="#427a7e" font-weight="400">duplicação.</text>
<rect x="690" y="1191" width="276" height="132" rx="6" fill="#f2f7f7" stroke="#06858e"/>
<text x="704" y="1216.8" font-family="DejaVu Sans, sans-serif" font-size="16" fill="#0a4a55" font-weight="700">Processar forma de</text>
<text x="704" y="1237.8" font-family="DejaVu Sans, sans-serif" font-size="16" fill="#0a4a55" font-weight="700">pagamento</text>
<text x="704" y="1261.4" font-family="DejaVu Sans, sans-serif" font-size="13" fill="#427a7e" font-weight="400">Online: validar aprovação. Presencial:</text>
<text x="704" y="1279.4" font-family="DejaVu Sans, sans-serif" font-size="13" fill="#427a7e" font-weight="400">a receber.</text>
<rect x="1010" y="1357" width="276" height="132" rx="6" fill="#f2f7f7" stroke="#06858e"/>
<text x="1024" y="1382.8" font-family="DejaVu Sans, sans-serif" font-size="16" fill="#0a4a55" font-weight="700">Separar pedido elegível</text>
<text x="1024" y="1406.4" font-family="DejaVu Sans, sans-serif" font-size="13" fill="#427a7e" font-weight="400">Seguir entrega ou retirada.</text>
<rect x="50" y="1523" width="276" height="132" rx="6" fill="#f2f7f7" stroke="#06858e"/>
<text x="64" y="1548.8" font-family="DejaVu Sans, sans-serif" font-size="16" fill="#0a4a55" font-weight="700">P08 e C03: acompanhar</text>
<text x="64" y="1572.4" font-family="DejaVu Sans, sans-serif" font-size="13" fill="#427a7e" font-weight="400">Status operacional e financeiro</text>
<text x="64" y="1590.4" font-family="DejaVu Sans, sans-serif" font-size="13" fill="#427a7e" font-weight="400">separados.</text>
<text x="36" y="1720.2" font-family="DejaVu Sans, sans-serif" font-size="14" fill="#427a7e" font-weight="400">Rottava Pet Casa e Jardim • 23/09/2026</text>
</svg>