<svg xmlns="http://www.w3.org/2000/svg" width="1360" height="1744" viewBox="0 0 1360 1744"><rect width="100%" height="100%" fill="#e8f0f0"/>
<text x="36" y="54.0" font-family="DejaVu Sans, sans-serif" font-size="30" fill="#0a4a55" font-weight="700">FL04  Entrega própria e rastreamento</text>
<text x="36" y="89.6" font-family="DejaVu Sans, sans-serif" font-size="17" fill="#427a7e" font-weight="400">Fluxo funcional por responsável • proposta v1 • não é BPMN executável</text>
<rect x="36" y="115" width="304" height="1574" rx="4" fill="#f2f7f7" stroke="#cde0e2"/>
<text x="52" y="153.0" font-family="DejaVu Sans, sans-serif" font-size="20" fill="#0a4a55" font-weight="700">Despachante</text>
<rect x="356" y="115" width="304" height="1574" rx="4" fill="#f2f7f7" stroke="#cde0e2"/>
<text x="372" y="153.0" font-family="DejaVu Sans, sans-serif" font-size="20" fill="#0a4a55" font-weight="700">Entregador</text>
<rect x="676" y="115" width="304" height="1574" rx="4" fill="#f2f7f7" stroke="#cde0e2"/>
<text x="692" y="153.0" font-family="DejaVu Sans, sans-serif" font-size="20" fill="#0a4a55" font-weight="700">Aplicação</text>
<rect x="996" y="115" width="304" height="1574" rx="4" fill="#f2f7f7" stroke="#cde0e2"/>
<text x="1012" y="153.0" font-family="DejaVu Sans, sans-serif" font-size="20" fill="#0a4a55" font-weight="700">Cliente</text>
<polyline points="188.0,327 188.0,344.0 508.0,344.0 508.0,361" fill="none" stroke="#76a6aa" stroke-width="2"/>
<polygon points="508.0,361 503.20574461395796,352.22417438109625 512.794255386042,352.22417438109625" fill="#76a6aa"/>
<polyline points="508.0,493 508.0,510.0 828.0,510.0 828.0,527" fill="none" stroke="#76a6aa" stroke-width="2"/>
<polygon points="828.0,527 823.205744613958,518.2241743810963 832.794255386042,518.2241743810963" fill="#76a6aa"/>
<polyline points="828.0,659 828.0,676.0 1148.0,676.0 1148.0,693" fill="none" stroke="#76a6aa" stroke-width="2"/>
<polygon points="1148.0,693 1143.205744613958,684.2241743810963 1152.794255386042,684.2241743810963" fill="#76a6aa"/>
<polyline points="1148.0,825 1148.0,842.0 508.0,842.0 508.0,859" fill="none" stroke="#76a6aa" stroke-width="2"/>
<polygon points="508.0,859 503.20574461395796,850.2241743810963 512.794255386042,850.2241743810963" fill="#76a6aa"/>
<polyline points="508.0,991 508.0,1008.0 508.0,1008.0 508.0,1025" fill="none" stroke="#76a6aa" stroke-width="2"/>
<polygon points="508.0,1025 503.20574461395796,1016.2241743810963 512.794255386042,1016.2241743810963" fill="#76a6aa"/>
<rect x="378" y="1005" width="175.6" height="24" rx="2" fill="#e8f0f0" stroke="#e8f0f0"/>
<text x="382" y="1017.6" font-family="DejaVu Sans, sans-serif" font-size="12" fill="#427a7e" font-weight="400">destinatário encontrado</text>
<polyline points="508.0,1157 508.0,1174.0 828.0,1174.0 828.0,1191" fill="none" stroke="#76a6aa" stroke-width="2"/>
<polygon points="828.0,1191 823.205744613958,1182.2241743810962 832.794255386042,1182.2241743810962" fill="#76a6aa"/>
<polyline points="828.0,1323 828.0,1340.0 188.0,1340.0 188.0,1357" fill="none" stroke="#76a6aa" stroke-width="2"/>
<polygon points="188.0,1357 183.20574461395796,1348.2241743810962 192.79425538604204,1348.2241743810962" fill="#76a6aa"/>
<rect x="58" y="1337" width="182.8" height="24" rx="2" fill="#e8f0f0" stroke="#e8f0f0"/>
<text x="62" y="1349.6" font-family="DejaVu Sans, sans-serif" font-size="12" fill="#427a7e" font-weight="400">conciliação independente</text>
<polyline points="828.0,1323 828.0,1337 674,1337 674,1508 828.0,1508 828.0,1523" fill="none" stroke="#76a6aa" stroke-width="2"/>
<polygon points="828.0,1523 823.205744613958,1514.2241743810962 832.794255386042,1514.2241743810962" fill="#76a6aa"/>
<rect x="698" y="1337" width="132.4" height="24" rx="2" fill="#e8f0f0" stroke="#e8f0f0"/>
<text x="702" y="1349.6" font-family="DejaVu Sans, sans-serif" font-size="12" fill="#427a7e" font-weight="400">entrega concluída</text>
<polyline points="508.0,991 508.0,1005 354,1005 354,1342 188.0,1342 188.0,1357" fill="none" stroke="#76a6aa" stroke-width="2"/>
<polygon points="188.0,1357 183.20574461395796,1348.2241743810962 192.79425538604204,1348.2241743810962" fill="#76a6aa"/>
<rect x="58" y="1005" width="146.8" height="24" rx="2" fill="#e8f0f0" stroke="#e8f0f0"/>
<text x="62" y="1017.6" font-family="DejaVu Sans, sans-serif" font-size="12" fill="#427a7e" font-weight="400">ausente ou problema</text>
<rect x="50" y="195" width="276" height="132" rx="6" fill="#f2f7f7" stroke="#06858e"/>
<text x="64" y="220.8" font-family="DejaVu Sans, sans-serif" font-size="16" fill="#0a4a55" font-weight="700">M07: criar e atribuir rota</text>
<text x="64" y="244.4" font-family="DejaVu Sans, sans-serif" font-size="13" fill="#427a7e" font-weight="400">Apenas pedidos prontos e elegíveis.</text>
<rect x="370" y="361" width="276" height="132" rx="6" fill="#f2f7f7" stroke="#06858e"/>
<text x="384" y="386.8" font-family="DejaVu Sans, sans-serif" font-size="16" fill="#0a4a55" font-weight="700">E01 e E02: iniciar rota</text>
<text x="384" y="410.4" font-family="DejaVu Sans, sans-serif" font-size="13" fill="#427a7e" font-weight="400">Confirmar tarefa e permissão de</text>
<text x="384" y="428.4" font-family="DejaVu Sans, sans-serif" font-size="13" fill="#427a7e" font-weight="400">localização.</text>
<rect x="690" y="527" width="276" height="132" rx="6" fill="#f2f7f7" stroke="#06858e"/>
<text x="704" y="552.8" font-family="DejaVu Sans, sans-serif" font-size="16" fill="#0a4a55" font-weight="700">Receber posições e</text>
<text x="704" y="573.8" font-family="DejaVu Sans, sans-serif" font-size="16" fill="#0a4a55" font-weight="700">eventos</text>
<text x="704" y="597.4" font-family="DejaVu Sans, sans-serif" font-size="13" fill="#427a7e" font-weight="400">Validar origem, horário e precisão.</text>
<rect x="1010" y="693" width="276" height="132" rx="6" fill="#f2f7f7" stroke="#06858e"/>
<text x="1024" y="718.8" font-family="DejaVu Sans, sans-serif" font-size="16" fill="#0a4a55" font-weight="700">C04: acompanhar entrega</text>
<text x="1024" y="742.4" font-family="DejaVu Sans, sans-serif" font-size="13" fill="#427a7e" font-weight="400">Somente própria entrega; última</text>
<text x="1024" y="760.4" font-family="DejaVu Sans, sans-serif" font-size="13" fill="#427a7e" font-weight="400">atualização.</text>
<rect x="370" y="859" width="276" height="132" rx="6" fill="#f2f7f7" stroke="#06858e"/>
<text x="384" y="884.8" font-family="DejaVu Sans, sans-serif" font-size="16" fill="#0a4a55" font-weight="700">Chegar e conferir</text>
<text x="384" y="905.8" font-family="DejaVu Sans, sans-serif" font-size="16" fill="#0a4a55" font-weight="700">destinatário</text>
<text x="384" y="929.4" font-family="DejaVu Sans, sans-serif" font-size="13" fill="#427a7e" font-weight="400">Sem concluir apenas pela</text>
<text x="384" y="947.4" font-family="DejaVu Sans, sans-serif" font-size="13" fill="#427a7e" font-weight="400">proximidade GPS.</text>
<rect x="370" y="1025" width="276" height="132" rx="6" fill="#f2f7f7" stroke="#06858e"/>
<text x="384" y="1050.8" font-family="DejaVu Sans, sans-serif" font-size="16" fill="#0a4a55" font-weight="700">E03: registrar prova e</text>
<text x="384" y="1071.8" font-family="DejaVu Sans, sans-serif" font-size="16" fill="#0a4a55" font-weight="700">cobrança</text>
<text x="384" y="1095.4" font-family="DejaVu Sans, sans-serif" font-size="13" fill="#427a7e" font-weight="400">Entrega física e recebimento</text>
<text x="384" y="1113.4" font-family="DejaVu Sans, sans-serif" font-size="13" fill="#427a7e" font-weight="400">separados.</text>
<rect x="690" y="1191" width="276" height="132" rx="6" fill="#f2f7f7" stroke="#06858e"/>
<text x="704" y="1216.8" font-family="DejaVu Sans, sans-serif" font-size="16" fill="#0a4a55" font-weight="700">Aceitar conclusão</text>
<text x="704" y="1237.8" font-family="DejaVu Sans, sans-serif" font-size="16" fill="#0a4a55" font-weight="700">idempotente</text>
<text x="704" y="1261.4" font-family="DejaVu Sans, sans-serif" font-size="13" fill="#427a7e" font-weight="400">Offline permanece pendente de</text>
<text x="704" y="1279.4" font-family="DejaVu Sans, sans-serif" font-size="13" fill="#427a7e" font-weight="400">sincronizar.</text>
<rect x="50" y="1357" width="276" height="132" rx="6" fill="#f2f7f7" stroke="#06858e"/>
<text x="64" y="1382.8" font-family="DejaVu Sans, sans-serif" font-size="16" fill="#0a4a55" font-weight="700">Conferir ocorrência ou</text>
<text x="64" y="1403.8" font-family="DejaVu Sans, sans-serif" font-size="16" fill="#0a4a55" font-weight="700">caixa</text>
<text x="64" y="1427.4" font-family="DejaVu Sans, sans-serif" font-size="13" fill="#427a7e" font-weight="400">Ausência/retorno e conciliação, se</text>
<text x="64" y="1445.4" font-family="DejaVu Sans, sans-serif" font-size="13" fill="#427a7e" font-weight="400">necessário.</text>
<rect x="690" y="1523" width="276" height="132" rx="6" fill="#f2f7f7" stroke="#06858e"/>
<text x="704" y="1548.8" font-family="DejaVu Sans, sans-serif" font-size="16" fill="#0a4a55" font-weight="700">Encerrar acesso ao</text>
<text x="704" y="1569.8" font-family="DejaVu Sans, sans-serif" font-size="16" fill="#0a4a55" font-weight="700">rastreamento</text>
<text x="704" y="1593.4" font-family="DejaVu Sans, sans-serif" font-size="13" fill="#427a7e" font-weight="400">Não compartilhar próximos</text>
<text x="704" y="1611.4" font-family="DejaVu Sans, sans-serif" font-size="13" fill="#427a7e" font-weight="400">deslocamentos.</text>
<text x="36" y="1720.2" font-family="DejaVu Sans, sans-serif" font-size="14" fill="#427a7e" font-weight="400">Rottava Pet Casa e Jardim • 23/09/2026</text>
</svg>